<svg xmlns="http://www.w3.org/2000/svg" viewBox="0 0 24 24">
<path fill="white" d="M12 2C6.48 2 2 6.48 2 12c0 1.85.5 3.59 1.37 5.1L2 22l5.05-1.32C8.5 21.54 10.2 22 12 22c5.52 0 10-4.48 10-10S17.52 2 12 2zm0 18c-1.61 0-3.11-.43-4.4-1.17l-.31-.18-3 .78.8-2.92-.2-.3C4.17 15.02 3.8 13.55 3.8 12c0-4.52 3.68-8.2 8.2-8.2s8.2 3.68 8.2 8.2-3.68 8.2-8.2 8.2zm4.5-6.1c-.25-.12-1.47-.73-1.7-.82-.23-.08-.4-.12-.57.12-.17.25-.65.82-.8.98-.15.17-.3.18-.55.06-.25-.12-1.05-.39-2-1.25-.74-.66-1.24-1.47-1.39-1.72-.14-.25-.02-.38.1-.5.1-.1.25-.27.37-.4.12-.12.17-.2.25-.33.08-.12.04-.23-.02-.33-.06-.1-.57-1.37-.78-1.87-.21-.5-.42-.43-.57-.44h-.48c-.17 0-.44.06-.67.31-.23.25-.88.86-.88 2.1s.9 2.43 1.03 2.6c.12.17 1.76 2.68 4.27 3.76.6.26 1.07.42 1.44.54.61.19 1.17.16 1.61.1.49-.07 1.47-.6 1.67-1.18.21-.58.21-1.08.15-1.18-.06-.1-.23-.17-.48-.29z"></path>
</svg>